<?xml version="1.0" encoding="utf-8"?>
<!-- Generator: Adobe Illustrator 21.1.0, SVG Export Plug-In . SVG Version: 6.00 Build 0)  -->
<svg version="1.1" id="Layer_1" xmlns="http://www.w3.org/2000/svg" xmlns:xlink="http://www.w3.org/1999/xlink" x="0px" y="0px"
	 width="34px" height="21px" viewBox="0 0 34 21" enable-background="new 0 0 34 21" xml:space="preserve">
<title>Language_icon_3</title>
<rect id="_Rectangle_" x="0.47" y="0.47" fill="#FFFFFF" width="33.07" height="20.06"/>
<rect id="_Rectangle_2" x="0.47" y="0.47" fill="none" stroke="#E8E8E8" stroke-width="0.93" stroke-miterlimit="10" width="33.07" height="20.06"/>
<g>
	<defs>
		<rect id="SVGID_1_" x="0.6" y="0.95" width="32.75" height="19.06"/>
	</defs>
	<clipPath id="SVGID_2_">
		<use xlink:href="#SVGID_1_"  overflow="visible"/>
	</clipPath>
	<g clip-path="url(#SVGID_2_)">
		<rect x="0.6" y="0.95" fill="#3C9242" width="32.75" height="19.06"/>
		<polygon fill="#EDC226" points="5.63,10.47 16.98,17.7 28.32,10.47 16.98,3.25 		"/>
		<g>
			<defs>
				<rect id="SVGID_3_" x="0.6" y="0.95" width="32.75" height="19.06"/>
			</defs>
			<clipPath id="SVGID_4_">
				<use xlink:href="#SVGID_3_"  overflow="visible"/>
			</clipPath>
			<g clip-path="url(#SVGID_4_)">
				<path fill="#2D146E" d="M21.74,10.47c0,2.629-2.131,4.76-4.76,4.76s-4.76-2.131-4.76-4.76s2.131-4.76,4.76-4.76
					c0.007,0,0.013,0,0.02,0c2.627,0.006,4.754,2.133,4.76,4.76"/>
				<path fill="#FFFFFF" d="M14.25,8.44c-0.54,0-1.13,0.05-1.67,0.11c-0.098,0.241-0.168,0.493-0.21,0.75
					c0.617-0.11,1.243-0.163,1.87-0.16c2.689-0.019,5.288,0.973,7.28,2.78c0.076-0.244,0.127-0.495,0.15-0.75
					c-2.068-1.774-4.706-2.743-7.43-2.73"/>
				<path fill="#3C9242" d="M12.91,9.08c0.099-0.006,0.175-0.092,0.169-0.191c-0.001-0.024-0.008-0.048-0.019-0.069
					c0-0.11-0.1-0.22-0.21-0.16s-0.22,0.11-0.16,0.22c-0.012,0.104,0.062,0.199,0.166,0.211c0.018,0.002,0.036,0.002,0.054-0.001
					 M12.91,8.99c0.039-0.003,0.074-0.021,0.1-0.05c-0.016-0.08-0.05-0.156-0.1-0.22c-0.086,0.005-0.155,0.074-0.16,0.16
					C12.75,8.99,12.8,9.04,12.91,8.99"/>
				<path fill="#3C9242" d="M13.29,9h0.05V8.87h0.21c0.05,0,0.11-0.11,0.11-0.16s-0.06-0.15-0.17-0.15h-0.26L13.29,9z M13.34,8.73
					h0.15c0.027,0.006,0.053-0.012,0.059-0.039C13.55,8.687,13.55,8.684,13.55,8.68l-0.06-0.05h-0.15V8.73z"/>
				<path fill="#3C9242" d="M13.66,9c0,0,0-0.22-0.11-0.22h-0.11c0.11,0,0.11,0.16,0.11,0.16"/>
				<path fill="#3C9242" d="M13.88,9h0.21c0.083,0.006,0.154-0.057,0.16-0.139c0-0.007,0-0.014,0-0.021V8.76
					c0-0.11-0.05-0.21-0.16-0.21h-0.26L13.88,9z M13.88,8.89h0.16c0.059-0.005,0.105-0.051,0.11-0.11V8.76
					c0-0.05-0.05-0.11-0.16-0.11h-0.11V8.89z"/>
				<polygon fill="#3C9242" points="14.4,8.98 14.83,9.04 14.83,8.93 14.51,8.93 14.51,8.81 14.79,8.81 14.79,8.76 14.51,8.71 
					14.51,8.65 14.83,8.65 14.83,8.55 14.46,8.55 				"/>
				<polygon fill="#3C9242" points="14.99,9.04 15.05,9.04 15.11,8.71 15.16,9.04 15.26,9.04 15.37,8.76 15.31,9.08 15.42,9.08 
					15.48,8.6 15.31,8.6 15.21,8.93 15.16,8.6 15.05,8.55 				"/>
				<polygon fill="#3C9242" points="15.96,9.13 16.28,9.19 16.28,9.13 16.02,9.08 16.07,8.98 16.28,8.98 16.28,8.93 16.07,8.87 
					16.07,8.81 16.33,8.87 16.33,8.76 16.02,8.71 				"/>
				<path fill="#3C9242" d="M16.81,9.3h0.05l0.05-0.11h0.16c0.1,0.05,0.15,0,0.21-0.11c-0.031-0.054-0.068-0.104-0.11-0.15
					l-0.26-0.05L16.81,9.3z M17,9.08l0.15,0.05l0.05-0.05h-0.05L17,9V9.08z"/>
				<path fill="#3C9242" d="M17.35,9.46h0.11l0.05-0.16l0.15,0.05c0,0,0.16,0,0.16-0.05s0-0.16-0.05-0.22h-0.26L17.35,9.46z
					 M17.51,9.24l0.15,0.05c0.042-0.003,0.081-0.02,0.11-0.05c0-0.05,0-0.05-0.05-0.05l-0.16-0.05L17.51,9.24z"/>
				<path fill="#3C9242" d="M17.72,9.56c0-0.05,0.05-0.21,0-0.21L17.61,9.3c0.11,0.05,0.05,0.21,0.05,0.26"/>
				<path fill="#3C9242" d="M18.1,9.73c0.113,0.002,0.217-0.06,0.27-0.16c0.05-0.1,0-0.26-0.11-0.26
					c-0.095-0.044-0.208-0.003-0.253,0.092C18.005,9.408,18.002,9.414,18,9.42c-0.049,0.117-0.007,0.252,0.1,0.32 M18.16,9.63
					c0.05,0,0.11,0,0.16-0.11c0-0.054-0.018-0.107-0.05-0.15c-0.11,0-0.17,0-0.22,0.11S18.05,9.63,18.16,9.63"/>
				<path fill="#3C9242" d="M18.63,9.94c0.11,0,0.27-0.05,0.27-0.16c0.065-0.096,0.039-0.227-0.058-0.291s-0.227-0.039-0.291,0.058
					c-0.015,0.022-0.026,0.047-0.031,0.074c-0.053,0.122-0.006,0.264,0.11,0.33 M18.68,9.84c0.05,0.05,0.11,0,0.16-0.11
					c0.001-0.057-0.017-0.113-0.05-0.16c0,0-0.16,0.05-0.16,0.11s0,0.16,0,0.16"/>
				<polygon fill="#3C9242" points="18.74,9.72 18.91,9.78 18.91,9.84 18.74,9.78 				"/>
				<polygon fill="#3C9242" points="18.85,9.78 18.91,9.78 18.85,9.99 18.8,9.99 				"/>
				<path fill="#3C9242" d="M19,10l0.05,0.05L19.1,9.9l0.16,0.1l0.21-0.05c0.032-0.045,0.032-0.105,0-0.15l-0.32-0.16L19,10z
					 M19.16,9.85l0.16,0.05l0,0c0,0,0.05-0.05,0-0.11l-0.15-0.05L19.16,9.85z"/>
				<path fill="#3C9242" d="M19.34,10.26c0-0.11,0.1-0.22,0-0.27h-0.11c0.11,0.1,0.05,0.21,0.05,0.26"/>
				<polygon fill="#3C9242" points="19.49,10.32 19.86,10.53 19.86,10.47 19.6,10.32 19.65,10.21 19.86,10.32 19.92,10.26 
					19.71,10.15 19.76,10.04 20.03,10.21 20.08,10.15 19.71,9.94 				"/>
				<path fill="#3C9242" d="M20.19,10.58c-0.05,0,0,0.05,0,0.05l0.1,0.05c0.11-0.11-0.21-0.22-0.1-0.32s0.21-0.05,0.21-0.05
					c0.099,0.034,0.152,0.143,0.117,0.242c-0.002,0.006-0.005,0.012-0.007,0.018l-0.11-0.05c0.029-0.031,0.029-0.079,0-0.11
					c-0.05,0-0.11,0-0.11,0s0.22,0.16,0.11,0.33c-0.043,0.032-0.096,0.05-0.15,0.05c-0.167-0.107-0.22-0.217-0.16-0.33L20.19,10.58z
					"/>
				<path fill="#3C9242" d="M20.62,10.9c0,0,0,0.05,0.11,0.11h0.1c0,0-0.26-0.21-0.15-0.32s0.21,0,0.26,0s0.11,0.11,0.05,0.21h-0.11
					c0.05-0.05,0-0.05,0-0.05s-0.11-0.11-0.11-0.05s0.22,0.15,0.11,0.32s-0.15,0.05-0.26,0s-0.11-0.16-0.05-0.26L20.62,10.9z"/>
				<path fill="#3C9242" d="M21.1,11.38c0.1,0.11,0.21,0.05,0.32,0s0.05-0.22-0.05-0.27s-0.21-0.05-0.26,0.05
					c-0.032,0.069-0.049,0.144-0.05,0.22 M21.17,11.38c0.073,0.004,0.146-0.013,0.21-0.05c0.05-0.05,0-0.11,0-0.16s-0.16,0-0.16,0
					s-0.1,0.16,0,0.22"/>
				<polygon fill="#FFFFFF" points="13.07,9.41 13.01,9.62 13.12,9.62 				"/>
				<polygon fill="#FFFFFF" points="13.07,9.41 13.12,9.62 13.01,9.62 				"/>
				<polygon fill="#FFFFFF" points="13.29,9.56 13.07,9.56 13.07,9.67 				"/>
				<polygon fill="#FFFFFF" points="13.29,9.56 13.12,9.67 13.07,9.62 				"/>
				<polygon fill="#FFFFFF" points="12.91,9.56 13.07,9.67 13.12,9.62 				"/>
				<polygon fill="#FFFFFF" points="12.91,9.56 13.07,9.56 13.07,9.67 				"/>
				<polygon fill="#FFFFFF" points="13.18,9.78 13.12,9.62 13.01,9.62 				"/>
				<polygon fill="#FFFFFF" points="13.18,9.78 13.01,9.67 13.12,9.56 				"/>
				<polygon fill="#FFFFFF" points="12.97,9.78 13.12,9.67 13.07,9.56 				"/>
				<polygon fill="#FFFFFF" points="12.97,9.78 13.01,9.62 13.12,9.62 				"/>
				<polygon fill="#FFFFFF" points="13.49,11.44 13.44,11.65 13.55,11.65 				"/>
				<polygon fill="#FFFFFF" points="13.49,11.44 13.55,11.65 13.44,11.65 				"/>
				<polygon fill="#FFFFFF" points="13.71,11.54 13.49,11.54 13.49,11.65 				"/>
				<polygon fill="#FFFFFF" points="13.71,11.54 13.55,11.71 13.44,11.6 				"/>
				<polygon fill="#FFFFFF" points="13.34,11.54 13.44,11.71 13.55,11.6 				"/>
				<polygon fill="#FFFFFF" points="13.34,11.54 13.49,11.54 13.49,11.65 				"/>
				<polygon fill="#FFFFFF" points="13.6,11.81 13.55,11.6 13.44,11.65 				"/>
				<polygon fill="#FFFFFF" points="13.6,11.81 13.44,11.65 13.49,11.6 				"/>
				<polygon fill="#FFFFFF" points="13.39,11.81 13.55,11.65 13.49,11.6 				"/>
				<polygon fill="#FFFFFF" points="13.39,11.81 13.44,11.6 13.55,11.65 				"/>
				<polygon fill="#FFFFFF" points="12.91,11.92 12.86,12.08 12.91,12.08 				"/>
				<polygon fill="#FFFFFF" points="12.91,11.92 12.97,12.08 12.91,12.08 				"/>
				<polygon fill="#FFFFFF" points="13.01,12.03 12.91,12.03 12.91,12.08 				"/>
				<polygon fill="#FFFFFF" points="13.01,12.03 12.91,12.08 12.91,12.03 				"/>
				<polygon fill="#FFFFFF" points="12.8,12.03 12.91,12.08 12.91,12.03 				"/>
				<polygon fill="#FFFFFF" points="12.8,12.03 12.91,12.03 12.91,12.08 				"/>
				<polygon fill="#FFFFFF" points="13.01,12.19 12.97,12.03 12.91,12.08 				"/>
				<polygon fill="#FFFFFF" points="13.01,12.19 12.91,12.08 12.91,12.03 				"/>
				<polygon fill="#FFFFFF" points="12.86,12.19 12.97,12.08 12.91,12.03 				"/>
				<polygon fill="#FFFFFF" points="12.86,12.19 12.91,12.03 12.91,12.08 				"/>
				<polygon fill="#FFFFFF" points="13.98,11.23 13.92,11.34 13.98,11.34 				"/>
				<polygon fill="#FFFFFF" points="14.09,11.34 13.98,11.38 13.98,11.34 				"/>
				<polygon fill="#FFFFFF" points="13.88,11.34 13.98,11.38 13.98,11.34 				"/>
				<polygon fill="#FFFFFF" points="14.03,11.44 13.98,11.34 13.98,11.34 				"/>
				<polygon fill="#FFFFFF" points="14.03,11.44 13.98,11.34 13.98,11.34 				"/>
				<polygon fill="#FFFFFF" points="13.92,11.44 13.98,11.34 13.98,11.34 				"/>
				<polygon fill="#FFFFFF" points="13.92,11.44 13.92,11.34 13.98,11.34 				"/>
				<polygon fill="#FFFFFF" points="14.51,11.92 14.4,12.08 14.51,12.14 				"/>
				<polygon fill="#FFFFFF" points="14.51,11.92 14.57,12.08 14.46,12.14 				"/>
				<polygon fill="#FFFFFF" points="14.62,12.08 14.51,12.08 14.51,12.14 				"/>
				<polygon fill="#FFFFFF" points="14.62,12.08 14.51,12.14 14.46,12.08 				"/>
				<polygon fill="#FFFFFF" points="14.35,12.08 14.46,12.14 14.51,12.08 				"/>
				<polygon fill="#FFFFFF" points="14.35,12.08 14.51,12.08 14.51,12.14 				"/>
				<polygon fill="#FFFFFF" points="14.62,12.25 14.51,12.08 14.46,12.08 				"/>
				<polygon fill="#FFFFFF" points="14.62,12.25 14.46,12.14 14.51,12.08 				"/>
				<polygon fill="#FFFFFF" points="14.4,12.25 14.51,12.14 14.46,12.08 				"/>
				<polygon fill="#FFFFFF" points="14.4,12.25 14.46,12.08 14.51,12.08 				"/>
				<polygon fill="#FFFFFF" points="14.35,12.4 14.3,12.56 14.4,12.62 				"/>
				<polygon fill="#FFFFFF" points="14.35,12.4 14.4,12.56 14.3,12.62 				"/>
				<polygon fill="#FFFFFF" points="14.51,12.51 14.35,12.51 14.35,12.62 				"/>
				<polygon fill="#FFFFFF" points="14.51,12.51 14.4,12.62 14.3,12.56 				"/>
				<polygon fill="#FFFFFF" points="14.2,12.51 14.3,12.62 14.4,12.56 				"/>
				<polygon fill="#FFFFFF" points="14.2,12.51 14.35,12.51 14.35,12.62 				"/>
				<polygon fill="#FFFFFF" points="14.46,12.72 14.4,12.56 14.3,12.56 				"/>
				<polygon fill="#FFFFFF" points="14.46,12.72 14.3,12.62 14.35,12.56 				"/>
				<polygon fill="#FFFFFF" points="14.25,12.72 14.4,12.62 14.35,12.56 				"/>
				<polygon fill="#FFFFFF" points="14.25,12.72 14.3,12.56 14.4,12.56 				"/>
				<polygon fill="#FFFFFF" points="18.47,8.81 18.37,8.98 18.47,9.04 				"/>
				<polygon fill="#FFFFFF" points="18.47,8.81 18.52,8.98 18.43,9.04 				"/>
				<polygon fill="#FFFFFF" points="18.63,8.93 18.47,8.93 18.47,9.04 				"/>
				<polygon fill="#FFFFFF" points="18.63,8.93 18.47,9.08 18.43,8.98 				"/>
				<polygon fill="#FFFFFF" points="18.26,8.93 18.43,9.08 18.47,8.98 				"/>
				<polygon fill="#FFFFFF" points="18.26,8.93 18.47,8.93 18.47,9.04 				"/>
				<polygon fill="#FFFFFF" points="18.58,9.19 18.52,8.98 18.43,8.98 				"/>
				<polygon fill="#FFFFFF" points="18.58,9.19 18.43,9.04 18.47,8.98 				"/>
				<polygon fill="#FFFFFF" points="18.32,9.19 18.47,9.04 18.43,8.98 				"/>
				<polygon fill="#FFFFFF" points="18.32,9.19 18.43,8.98 18.47,8.98 				"/>
				<polygon fill="#FFFFFF" points="20.29,11.97 20.25,12.14 20.34,12.19 				"/>
				<polygon fill="#FFFFFF" points="20.29,11.97 20.4,12.14 20.29,12.19 				"/>
				<polygon fill="#FFFFFF" points="20.51,12.08 20.29,12.08 20.29,12.19 				"/>
				<polygon fill="#FFFFFF" points="20.51,12.08 20.34,12.19 20.29,12.14 				"/>
				<polygon fill="#FFFFFF" points="20.14,12.08 20.29,12.19 20.34,12.14 				"/>
				<polygon fill="#FFFFFF" points="20.14,12.08 20.34,12.08 20.34,12.19 				"/>
				<polygon fill="#FFFFFF" points="20.45,12.29 20.4,12.14 20.29,12.19 				"/>
				<polygon fill="#FFFFFF" points="20.45,12.29 20.29,12.19 20.34,12.14 				"/>
				<polygon fill="#FFFFFF" points="20.19,12.29 20.34,12.19 20.29,12.14 				"/>
				<polygon fill="#FFFFFF" points="20.19,12.29 20.25,12.14 20.34,12.19 				"/>
				<polygon fill="#FFFFFF" points="20.99,12.08 20.94,12.19 20.99,12.19 				"/>
				<polygon fill="#FFFFFF" points="20.99,12.08 21.05,12.19 20.94,12.19 				"/>
				<polygon fill="#FFFFFF" points="21.1,12.19 20.99,12.19 20.99,12.25 				"/>
				<polygon fill="#FFFFFF" points="21.1,12.19 20.99,12.25 20.94,12.19 				"/>
				<polygon fill="#FFFFFF" points="20.83,12.19 20.94,12.25 20.99,12.19 				"/>
				<polygon fill="#FFFFFF" points="20.83,12.19 20.99,12.19 20.99,12.25 				"/>
				<polygon fill="#FFFFFF" points="21.05,12.29 21.05,12.19 20.94,12.19 				"/>
				<polygon fill="#FFFFFF" points="21.05,12.29 20.94,12.25 20.99,12.19 				"/>
				<polygon fill="#FFFFFF" points="20.88,12.29 21.05,12.25 20.99,12.19 				"/>
				<polygon fill="#FFFFFF" points="20.88,12.29 20.94,12.19 20.99,12.19 				"/>
				<polygon fill="#FFFFFF" points="20.51,12.4 20.45,12.56 20.56,12.62 				"/>
				<polygon fill="#FFFFFF" points="20.51,12.4 20.56,12.56 20.51,12.62 				"/>
				<polygon fill="#FFFFFF" points="20.67,12.51 20.51,12.51 20.51,12.62 				"/>
				<polygon fill="#FFFFFF" points="20.67,12.51 20.51,12.62 20.51,12.56 				"/>
				<polygon fill="#FFFFFF" points="20.34,12.51 20.51,12.62 20.56,12.56 				"/>
				<polygon fill="#FFFFFF" points="20.34,12.51 20.51,12.51 20.51,12.62 				"/>
				<polygon fill="#FFFFFF" points="20.62,12.72 20.56,12.56 20.51,12.56 				"/>
				<polygon fill="#FFFFFF" points="20.62,12.72 20.45,12.62 20.51,12.56 				"/>
				<polygon fill="#FFFFFF" points="20.4,12.72 20.56,12.62 20.51,12.56 				"/>
				<polygon fill="#FFFFFF" points="20.4,12.72 20.45,12.56 20.56,12.56 				"/>
				<polygon fill="#FFFFFF" points="19.34,13.42 19.34,13.58 19.38,13.58 				"/>
				<polygon fill="#FFFFFF" points="19.34,13.42 19.43,13.58 19.34,13.58 				"/>
				<polygon fill="#FFFFFF" points="19.54,13.53 19.34,13.53 19.34,13.63 				"/>
				<polygon fill="#FFFFFF" points="19.54,13.53 19.38,13.63 19.34,13.58 				"/>
				<polygon fill="#FFFFFF" points="19.23,13.53 19.34,13.63 19.38,13.58 				"/>
				<polygon fill="#FFFFFF" points="19.23,13.53 19.38,13.53 19.38,13.63 				"/>
				<polygon fill="#FFFFFF" points="19.43,13.68 19.43,13.58 19.34,13.58 				"/>
				<polygon fill="#FFFFFF" points="19.43,13.68 19.34,13.63 19.38,13.58 				"/>
				<polygon fill="#FFFFFF" points="19.28,13.68 19.38,13.63 19.34,13.58 				"/>
				<polygon fill="#FFFFFF" points="19.28,13.68 19.34,13.58 19.38,13.58 				"/>
				<polygon fill="#FFFFFF" points="19.34,13.9 19.34,14.06 19.38,14.06 				"/>
				<polygon fill="#FFFFFF" points="19.34,13.9 19.38,14.06 19.34,14.06 				"/>
				<polygon fill="#FFFFFF" points="19.49,14.01 19.34,14.01 19.34,14.11 				"/>
				<polygon fill="#FFFFFF" points="19.49,14.01 19.38,14.11 19.34,14.06 				"/>
				<polygon fill="#FFFFFF" points="19.23,14.01 19.34,14.11 19.38,14.06 				"/>
				<polygon fill="#FFFFFF" points="19.23,14.01 19.34,14.01 19.34,14.11 				"/>
				<polygon fill="#FFFFFF" points="19.43,14.16 19.38,14.06 19.34,14.06 				"/>
				<polygon fill="#FFFFFF" points="19.43,14.16 19.34,14.11 19.38,14.01 				"/>
				<polygon fill="#FFFFFF" points="19.28,14.16 19.38,14.11 19.34,14.01 				"/>
				<polygon fill="#FFFFFF" points="19.28,14.16 19.34,14.06 19.38,14.06 				"/>
				<polygon fill="#FFFFFF" points="19.86,13.05 19.82,13.2 19.86,13.2 				"/>
				<polygon fill="#FFFFFF" points="19.86,13.05 19.86,13.2 19.82,13.2 				"/>
				<polygon fill="#FFFFFF" points="19.97,13.16 19.82,13.16 19.82,13.25 				"/>
				<polygon fill="#FFFFFF" points="19.97,13.16 19.86,13.25 19.82,13.2 				"/>
				<polygon fill="#FFFFFF" points="19.71,13.16 19.82,13.25 19.86,13.2 				"/>
				<polygon fill="#FFFFFF" points="19.71,13.16 19.86,13.16 19.86,13.25 				"/>
				<polygon fill="#FFFFFF" points="19.92,13.31 19.86,13.2 19.82,13.2 				"/>
				<polygon fill="#FFFFFF" points="19.92,13.31 19.82,13.25 19.86,13.16 				"/>
				<polygon fill="#FFFFFF" points="19.76,13.31 19.86,13.25 19.82,13.16 				"/>
				<polygon fill="#FFFFFF" points="19.76,13.31 19.82,13.2 19.86,13.2 				"/>
				<polygon fill="#FFFFFF" points="20.19,12.77 20.19,12.94 20.25,12.99 				"/>
				<polygon fill="#FFFFFF" points="20.19,12.77 20.29,12.94 20.19,12.99 				"/>
				<polygon fill="#FFFFFF" points="20.4,12.94 20.19,12.94 20.19,12.99 				"/>
				<polygon fill="#FFFFFF" points="20.4,12.94 20.25,12.99 20.19,12.94 				"/>
				<polygon fill="#FFFFFF" points="20.08,12.94 20.19,12.99 20.25,12.94 				"/>
				<polygon fill="#FFFFFF" points="20.08,12.94 20.25,12.94 20.25,12.99 				"/>
				<polygon fill="#FFFFFF" points="20.29,13.1 20.29,12.94 20.19,12.94 				"/>
				<polygon fill="#FFFFFF" points="20.29,13.1 20.19,12.99 20.25,12.94 				"/>
				<polygon fill="#FFFFFF" points="20.14,13.1 20.25,12.99 20.19,12.94 				"/>
				<polygon fill="#FFFFFF" points="20.14,13.1 20.19,12.94 20.25,12.94 				"/>
				<polygon fill="#FFFFFF" points="19.34,12.99 19.34,13.1 19.38,13.16 				"/>
				<polygon fill="#FFFFFF" points="19.34,12.99 19.38,13.1 19.34,13.16 				"/>
				<polygon fill="#FFFFFF" points="19.49,13.05 19.34,13.05 19.34,13.16 				"/>
				<polygon fill="#FFFFFF" points="19.49,13.05 19.34,13.16 19.34,13.1 				"/>
				<polygon fill="#FFFFFF" points="19.23,13.05 19.34,13.16 19.34,13.1 				"/>
				<polygon fill="#FFFFFF" points="19.23,13.05 19.34,13.05 19.34,13.16 				"/>
				<polygon fill="#FFFFFF" points="19.43,13.2 19.38,13.1 19.34,13.1 				"/>
				<polygon fill="#FFFFFF" points="19.43,13.2 19.34,13.16 19.34,13.1 				"/>
				<polygon fill="#FFFFFF" points="19.28,13.2 19.38,13.16 19.34,13.1 				"/>
				<polygon fill="#FFFFFF" points="19.28,13.2 19.34,13.1 19.38,13.1 				"/>
				<polygon fill="#FFFFFF" points="15.16,10.47 15.11,10.69 15.16,10.69 				"/>
				<polygon fill="#FFFFFF" points="15.16,10.47 15.21,10.69 15.16,10.69 				"/>
				<polygon fill="#FFFFFF" points="15.31,10.63 15.16,10.63 15.16,10.69 				"/>
				<polygon fill="#FFFFFF" points="15.31,10.63 15.16,10.74 15.16,10.63 				"/>
				<polygon fill="#FFFFFF" points="14.99,10.63 15.16,10.74 15.16,10.63 				"/>
				<polygon fill="#FFFFFF" points="14.99,10.63 15.16,10.63 15.16,10.69 				"/>
				<polygon fill="#FFFFFF" points="15.26,10.8 15.21,10.63 15.11,10.69 				"/>
				<polygon fill="#FFFFFF" points="15.26,10.8 15.11,10.69 15.16,10.63 				"/>
				<polygon fill="#FFFFFF" points="15.05,10.8 15.21,10.69 15.16,10.63 				"/>
				<polygon fill="#FFFFFF" points="15.05,10.8 15.11,10.63 15.21,10.69 				"/>
				<polygon fill="#FFFFFF" points="18.26,10.1 18.26,10.26 18.32,10.26 				"/>
				<polygon fill="#FFFFFF" points="18.26,10.1 18.32,10.26 18.26,10.26 				"/>
				<polygon fill="#FFFFFF" points="18.43,10.21 18.26,10.21 18.26,10.26 				"/>
				<polygon fill="#FFFFFF" points="18.43,10.21 18.26,10.26 18.26,10.21 				"/>
				<polygon fill="#FFFFFF" points="18.15,10.21 18.26,10.26 18.26,10.21 				"/>
				<polygon fill="#FFFFFF" points="18.15,10.21 18.26,10.21 18.26,10.26 				"/>
				<polygon fill="#FFFFFF" points="18.37,10.37 18.32,10.21 18.26,10.26 				"/>
				<polygon fill="#FFFFFF" points="18.37,10.37 18.26,10.26 18.26,10.21 				"/>
				<polygon fill="#FFFFFF" points="18.21,10.37 18.32,10.26 18.26,10.21 				"/>
				<polygon fill="#FFFFFF" points="18.21,10.37 18.26,10.21 18.32,10.26 				"/>
				<polygon fill="#FFFFFF" points="16.98,12.4 16.92,12.62 16.98,12.62 				"/>
				<polygon fill="#FFFFFF" points="16.98,12.4 17.03,12.62 16.92,12.62 				"/>
				<polygon fill="#FFFFFF" points="17.19,12.56 16.98,12.56 16.98,12.67 				"/>
				<polygon fill="#FFFFFF" points="17.19,12.56 16.98,12.67 16.98,12.62 				"/>
				<polygon fill="#FFFFFF" points="16.76,12.56 16.98,12.67 16.98,12.62 				"/>
				<polygon fill="#FFFFFF" points="16.76,12.56 16.98,12.56 16.98,12.67 				"/>
				<polygon fill="#FFFFFF" points="17.09,12.77 17.03,12.62 16.92,12.62 				"/>
				<polygon fill="#FFFFFF" points="17.09,12.77 16.92,12.67 16.98,12.62 				"/>
				<polygon fill="#FFFFFF" points="16.87,12.77 17.03,12.67 16.98,12.62 				"/>
				<polygon fill="#FFFFFF" points="16.87,12.77 16.92,12.62 17.03,12.62 				"/>
				<polygon fill="#FFFFFF" points="17.52,11.49 17.46,11.65 17.56,11.71 				"/>
				<polygon fill="#FFFFFF" points="17.52,11.49 17.56,11.65 17.52,11.71 				"/>
				<polygon fill="#FFFFFF" points="17.67,11.65 17.52,11.65 17.52,11.71 				"/>
				<polygon fill="#FFFFFF" points="17.67,11.65 17.56,11.71 17.52,11.65 				"/>
				<polygon fill="#FFFFFF" points="17.35,11.65 17.52,11.71 17.56,11.65 				"/>
				<polygon fill="#FFFFFF" points="17.35,11.65 17.52,11.65 17.52,11.71 				"/>
				<polygon fill="#FFFFFF" points="17.61,11.81 17.56,11.65 17.52,11.65 				"/>
				<polygon fill="#FFFFFF" points="17.61,11.81 17.52,11.71 17.52,11.65 				"/>
				<polygon fill="#FFFFFF" points="17.41,11.81 17.56,11.71 17.52,11.65 				"/>
				<polygon fill="#FFFFFF" points="17.41,11.81 17.46,11.65 17.56,11.65 				"/>
				<polygon fill="#FFFFFF" points="16.98,11.06 16.92,11.23 16.98,11.28 				"/>
				<polygon fill="#FFFFFF" points="16.98,11.06 17.03,11.23 16.98,11.28 				"/>
				<polygon fill="#FFFFFF" points="17.13,11.23 16.98,11.23 16.98,11.28 				"/>
				<polygon fill="#FFFFFF" points="17.13,11.23 16.98,11.28 16.98,11.23 				"/>
				<polygon fill="#FFFFFF" points="16.82,11.23 16.98,11.28 16.98,11.23 				"/>
				<polygon fill="#FFFFFF" points="16.82,11.23 16.98,11.23 16.98,11.28 				"/>
				<polygon fill="#FFFFFF" points="17.09,11.38 17.03,11.23 16.92,11.23 				"/>
				<polygon fill="#FFFFFF" points="17.09,11.38 16.92,11.28 16.98,11.23 				"/>
				<polygon fill="#FFFFFF" points="16.87,11.38 17.03,11.28 16.98,11.23 				"/>
				<polygon fill="#FFFFFF" points="16.87,11.38 16.92,11.23 16.98,11.23 				"/>
				<polygon fill="#FFFFFF" points="16.5,11.54 16.44,11.65 16.55,11.71 				"/>
				<polygon fill="#FFFFFF" points="16.5,11.54 16.55,11.65 16.44,11.71 				"/>
				<polygon fill="#FFFFFF" points="16.61,11.65 16.5,11.65 16.5,11.71 				"/>
				<polygon fill="#FFFFFF" points="16.61,11.65 16.5,11.71 16.5,11.65 				"/>
				<polygon fill="#FFFFFF" points="16.33,11.65 16.5,11.71 16.5,11.65 				"/>
				<polygon fill="#FFFFFF" points="16.33,11.65 16.5,11.65 16.5,11.71 				"/>
				<polygon fill="#FFFFFF" points="16.55,11.76 16.55,11.65 16.44,11.65 				"/>
				<polygon fill="#FFFFFF" points="16.55,11.76 16.44,11.71 16.5,11.65 				"/>
				<polygon fill="#FFFFFF" points="16.44,11.76 16.55,11.71 16.5,11.65 				"/>
				<polygon fill="#FFFFFF" points="16.44,11.76 16.44,11.65 16.55,11.65 				"/>
				<polygon fill="#FFFFFF" points="16.76,11.92 16.7,11.97 16.76,12.03 				"/>
				<polygon fill="#FFFFFF" points="16.76,11.92 16.76,11.97 16.7,12.03 				"/>
				<polygon fill="#FFFFFF" points="16.82,11.97 16.76,11.97 16.76,12.03 				"/>
				<polygon fill="#FFFFFF" points="16.82,11.97 16.76,12.03 16.7,11.97 				"/>
				<polygon fill="#FFFFFF" points="16.65,11.97 16.7,12.03 16.76,11.97 				"/>
				<polygon fill="#FFFFFF" points="16.65,11.97 16.76,11.97 16.76,12.03 				"/>
				<polygon fill="#FFFFFF" points="16.76,12.08 16.76,11.97 16.7,12.03 				"/>
				<polygon fill="#FFFFFF" points="16.76,12.08 16.7,12.03 16.76,11.97 				"/>
				<polygon fill="#FFFFFF" points="16.65,12.08 16.76,12.03 16.7,11.97 				"/>
				<polygon fill="#FFFFFF" points="16.65,12.08 16.7,11.97 16.76,12.03 				"/>
				<polygon fill="#FFFFFF" points="18.43,13.53 18.37,13.68 18.43,13.68 				"/>
				<polygon fill="#FFFFFF" points="18.43,13.53 18.47,13.68 18.37,13.68 				"/>
				<polygon fill="#FFFFFF" points="18.58,13.63 18.37,13.63 18.37,13.74 				"/>
				<polygon fill="#FFFFFF" points="18.58,13.63 18.43,13.74 18.37,13.68 				"/>
				<polygon fill="#FFFFFF" points="18.26,13.63 18.37,13.74 18.43,13.68 				"/>
				<polygon fill="#FFFFFF" points="18.26,13.63 18.43,13.63 18.43,13.74 				"/>
				<polygon fill="#FFFFFF" points="18.47,13.85 18.47,13.68 18.37,13.68 				"/>
				<polygon fill="#FFFFFF" points="18.47,13.85 18.37,13.74 18.43,13.68 				"/>
				<polygon fill="#FFFFFF" points="18.32,13.85 18.43,13.74 18.37,13.68 				"/>
				<polygon fill="#FFFFFF" points="18.32,13.85 18.37,13.68 18.43,13.68 				"/>
				<polygon fill="#FFFFFF" points="18.8,13.16 18.8,13.25 18.85,13.25 				"/>
				<polygon fill="#FFFFFF" points="18.8,13.16 18.85,13.25 18.8,13.25 				"/>
				<polygon fill="#FFFFFF" points="18.95,13.25 18.8,13.25 18.8,13.31 				"/>
				<polygon fill="#FFFFFF" points="18.95,13.25 18.85,13.31 18.8,13.25 				"/>
				<polygon fill="#FFFFFF" points="18.69,13.25 18.8,13.31 18.85,13.25 				"/>
				<polygon fill="#FFFFFF" points="18.69,13.25 18.8,13.25 18.8,13.31 				"/>
				<polygon fill="#FFFFFF" points="18.91,13.36 18.85,13.25 18.8,13.25 				"/>
				<polygon fill="#FFFFFF" points="18.91,13.36 18.8,13.31 18.8,13.25 				"/>
				<polygon fill="#FFFFFF" points="18.74,13.36 18.85,13.31 18.8,13.25 				"/>
				<polygon fill="#FFFFFF" points="18.74,13.36 18.8,13.25 18.85,13.25 				"/>
				<polygon fill="#FFFFFF" points="18.04,13.05 18,13.16 18.04,13.16 				"/>
				<polygon fill="#FFFFFF" points="18.04,13.05 18.04,13.16 18,13.16 				"/>
				<polygon fill="#FFFFFF" points="18.15,13.1 18.04,13.1 18.04,13.2 				"/>
				<polygon fill="#FFFFFF" points="18.15,13.1 18.04,13.2 18,13.16 				"/>
				<polygon fill="#FFFFFF" points="17.89,13.1 18,13.2 18.04,13.16 				"/>
				<polygon fill="#FFFFFF" points="17.89,13.1 18.04,13.1 18.04,13.2 				"/>
				<polygon fill="#FFFFFF" points="18.1,13.25 18.04,13.16 18,13.16 				"/>
				<polygon fill="#FFFFFF" points="18.1,13.25 18,13.2 18.04,13.16 				"/>
				<polygon fill="#FFFFFF" points="17.94,13.25 18.04,13.2 18.04,13.16 				"/>
				<polygon fill="#FFFFFF" points="17.94,13.25 18,13.16 18.04,13.16 				"/>
				<polygon fill="#FFFFFF" points="15.05,12.83 14.99,12.99 15.11,13.05 				"/>
				<polygon fill="#FFFFFF" points="15.05,12.83 15.11,12.99 15.05,13.05 				"/>
				<polygon fill="#FFFFFF" points="15.26,12.94 15.05,12.94 15.05,13.05 				"/>
				<polygon fill="#FFFFFF" points="15.26,12.94 15.11,13.05 15.05,12.99 				"/>
				<polygon fill="#FFFFFF" points="14.83,12.94 15.05,13.05 15.11,12.99 				"/>
				<polygon fill="#FFFFFF" points="14.83,12.94 15.05,12.94 15.05,13.05 				"/>
				<polygon fill="#FFFFFF" points="15.16,13.16 15.11,12.99 15.05,13.05 				"/>
				<polygon fill="#FFFFFF" points="15.16,13.16 14.99,13.05 15.05,12.99 				"/>
				<polygon fill="#FFFFFF" points="14.94,13.16 15.11,13.05 15.05,12.99 				"/>
				<polygon fill="#FFFFFF" points="14.94,13.16 14.99,12.99 15.11,13.05 				"/>
				<polygon fill="#FFFFFF" points="17.03,14.27 16.98,14.22 16.98,14.22 				"/>
				<polygon fill="#FFFFFF" points="17.03,14.27 16.98,14.22 16.98,14.22 				"/>
				<polygon fill="#FFFFFF" points="16.92,14.27 16.98,14.22 16.98,14.22 				"/>
				<polygon fill="#FFFFFF" points="16.92,14.27 16.98,14.22 16.98,14.22 				"/>
			</g>
		</g>
	</g>
</g>
<rect id="_Rectangle_2_1_" x="0.47" y="0.47" fill="none" stroke="#E8E8E8" stroke-width="0.93" stroke-miterlimit="10" width="33.07" height="20.06"/>
</svg>
